<!-- Generated by IcoMoon.io -->
<svg version="1.1" xmlns="http://www.w3.org/2000/svg" width="32" height="32" viewBox="0 0 32 32">
<title>bofangliebiao</title>
<path d="M4.156 5.684h23.531c0.691 0 1.25-0.559 1.25-1.25s-0.559-1.25-1.25-1.25h-23.531c-0.691 0-1.25 0.559-1.25 1.25s0.559 1.25 1.25 1.25zM27.688 14.787h-23.531c-0.691 0-1.25 0.559-1.25 1.25s0.559 1.25 1.25 1.25h23.531c0.691 0 1.25-0.559 1.25-1.25s-0.559-1.25-1.25-1.25zM17.875 26.456h-13.719c-0.691 0-1.25 0.559-1.25 1.25s0.559 1.25 1.25 1.25h13.719c0.691 0 1.25-0.559 1.25-1.25s-0.559-1.25-1.25-1.25zM28.3 22.647l-7.056-4.072c-0.387-0.222-0.863-0.222-1.25 0s-0.625 0.634-0.625 1.081v8.15c0 0.447 0.238 0.859 0.625 1.081 0.194 0.113 0.409 0.169 0.625 0.169s0.431-0.056 0.625-0.169l7.056-4.075c0.387-0.222 0.625-0.634 0.625-1.081s-0.238-0.859-0.625-1.084zM21.869 25.641v-3.819l3.306 1.909-3.306 1.909z"></path>
</svg>
