<!-- Generated by IcoMoon.io -->
<svg version="1.1" xmlns="http://www.w3.org/2000/svg" width="32" height="32" viewBox="0 0 32 32">
<title>bofangduilie</title>
<path d="M29.337 17.359c-0.4-0.866-0.95-1.647-1.616-2.309-0.075-0.069-0.15-0.137-0.222-0.213-0.484-0.5-0.837-1.122-1.003-1.816-0.028-0.103-0.047-0.206-0.063-0.313-0.050-0.3-0.066-0.616-0.041-0.931 0.053-0.7 0.288-1.344 0.65-1.887-1.491 0.197-2.744 1.228-3.225 2.644-0.034 0.106-0.069 0.216-0.094 0.328l-0.694 9.063c-0.2-0.081-0.403-0.153-0.619-0.209-0.366-0.103-0.753-0.178-1.156-0.222-0.466-0.050-0.953-0.053-1.456-0.003-1.066 0.1-2.038 0.416-2.837 0.872-0.903 0.516-1.584 1.219-1.934 2.012-0.203 0.462-0.297 0.953-0.247 1.453 0.197 2.116 2.769 3.603 5.738 3.325 0.728-0.069 1.416-0.238 2.031-0.484 0.831-0.334 1.534-0.809 2.053-1.372 0.456-0.494 0.766-1.059 0.884-1.653 0.022-0.113 0.038-0.231 0.050-0.347 0.006 0 0.688-8.822 0.688-8.822 0.072 0.003 0.15 0.003 0.222 0.009 0.941 0.072 1.781 0.466 2.419 1.072 0.512 0.484 0.891 1.103 1.087 1.797-0.113-0.697-0.322-1.366-0.616-1.994zM3.281 5.281h24.944c0.691 0 1.25-0.559 1.25-1.25s-0.559-1.25-1.25-1.25h-24.944c-0.691 0-1.25 0.559-1.25 1.25s0.559 1.25 1.25 1.25zM3.281 17.244h17.756c0.691 0 1.25-0.559 1.25-1.25s-0.559-1.25-1.25-1.25h-17.756c-0.691 0-1.25 0.559-1.25 1.25s0.559 1.25 1.25 1.25zM13.037 26.706h-9.756c-0.691 0-1.25 0.559-1.25 1.25s0.559 1.25 1.25 1.25h9.756c0.691 0 1.25-0.559 1.25-1.25s-0.559-1.25-1.25-1.25z"></path>
</svg>
