<!-- Generated by IcoMoon.io -->
<svg version="1.1" xmlns="http://www.w3.org/2000/svg" width="32" height="32" viewBox="0 0 32 32">
<title>bofangzhong</title>
<path d="M29 10.472c-0.706-1.669-1.716-3.166-3.003-4.453s-2.784-2.297-4.453-3.003c-1.728-0.731-3.563-1.1-5.453-1.1s-3.725 0.369-5.453 1.1c-1.669 0.706-3.166 1.716-4.453 3.003s-2.297 2.784-3.003 4.453c-0.731 1.728-1.1 3.563-1.1 5.453s0.372 3.725 1.1 5.453c0.706 1.669 1.716 3.166 3.003 4.453s2.784 2.297 4.453 3.003c1.728 0.731 3.563 1.1 5.453 1.1s3.725-0.372 5.453-1.1c1.669-0.706 3.166-1.716 4.453-3.003s2.297-2.784 3.003-4.453c0.731-1.728 1.1-3.563 1.1-5.453s-0.372-3.725-1.1-5.453zM16.091 27.434c-6.347 0-11.509-5.162-11.509-11.509s5.162-11.509 11.509-11.509c6.347 0 11.509 5.162 11.509 11.509 0 6.344-5.163 11.509-11.509 11.509zM12.931 9.894c-0.691 0-1.25 0.559-1.25 1.25v9.563c0 0.691 0.559 1.25 1.25 1.25s1.25-0.559 1.25-1.25v-9.563c0-0.691-0.559-1.25-1.25-1.25zM19.25 9.894c-0.691 0-1.25 0.559-1.25 1.25v9.563c0 0.691 0.559 1.25 1.25 1.25s1.25-0.559 1.25-1.25v-9.563c0-0.691-0.559-1.25-1.25-1.25z"></path>
</svg>
