<!-- Generated by IcoMoon.io -->
<svg version="1.1" xmlns="http://www.w3.org/2000/svg" width="32" height="32" viewBox="0 0 32 32">
<title>CD</title>
<path d="M28.931 10.534c-0.709-1.675-1.722-3.178-3.012-4.469s-2.794-2.303-4.469-3.013c-1.731-0.734-3.575-1.106-5.472-1.106s-3.738 0.372-5.472 1.106c-1.675 0.709-3.178 1.722-4.469 3.013s-2.303 2.794-3.013 4.469c-0.734 1.734-1.106 3.575-1.106 5.472s0.372 3.738 1.106 5.472c0.709 1.675 1.722 3.178 3.013 4.469s2.794 2.303 4.469 3.012c1.734 0.734 3.575 1.106 5.472 1.106s3.738-0.372 5.472-1.106c1.675-0.709 3.178-1.722 4.469-3.012s2.303-2.794 3.012-4.469c0.734-1.734 1.106-3.575 1.106-5.472s-0.372-3.738-1.106-5.472zM15.978 27.566c-6.375 0-11.559-5.184-11.559-11.559s5.184-11.559 11.559-11.559c6.375 0 11.559 5.184 11.559 11.559s-5.184 11.559-11.559 11.559zM15.978 7.347c-2.313 0-4.487 0.9-6.125 2.538s-2.537 3.809-2.537 6.125c0 2.313 0.9 4.488 2.537 6.125 1.634 1.634 3.809 2.538 6.125 2.538s4.487-0.9 6.125-2.538c1.634-1.634 2.538-3.809 2.538-6.125 0-2.313-0.9-4.488-2.538-6.125s-3.809-2.537-6.125-2.537zM15.978 22.166c-3.397 0-6.159-2.762-6.159-6.159s2.762-6.159 6.159-6.159 6.159 2.762 6.159 6.159-2.762 6.159-6.159 6.159zM13.954 18.031c0.518 0.518 1.234 0.838 2.024 0.838 1.581 0 2.862-1.282 2.862-2.863 0-0.791-0.32-1.506-0.839-2.024v0c-0.518-0.518-1.234-0.838-2.024-0.838-1.581 0-2.863 1.282-2.863 2.862 0 0.791 0.32 1.506 0.839 2.024v0z"></path>
</svg>
