<!-- Generated by IcoMoon.io -->
<svg version="1.1" xmlns="http://www.w3.org/2000/svg" width="32" height="32" viewBox="0 0 32 32">
<title>danquxunhuan</title>
<path d="M11.297 22.744c-3.722 0-6.747-3.028-6.747-6.747 0-3.722 3.028-6.747 6.747-6.747 0.072 0 0.144-0.006 0.213-0.019v1.822c0 0.384 0.438 0.606 0.747 0.378l4.144-3.050c0.253-0.188 0.253-0.569 0-0.756l-4.144-3.050c-0.309-0.228-0.747-0.006-0.747 0.378v1.816c-0.069-0.013-0.141-0.019-0.213-0.019-1.244 0-2.453 0.247-3.594 0.731-1.1 0.469-2.088 1.134-2.938 1.984s-1.519 1.838-1.984 2.938c-0.484 1.141-0.731 2.35-0.731 3.594s0.247 2.453 0.731 3.594c0.469 1.1 1.134 2.087 1.984 2.938s1.838 1.519 2.938 1.984c1.141 0.484 2.35 0.731 3.594 0.731 0.691 0 1.25-0.559 1.25-1.25s-0.559-1.25-1.25-1.25zM29.319 12.403c-0.469-1.1-1.134-2.088-1.984-2.938s-1.837-1.519-2.938-1.984c-1.141-0.484-2.35-0.731-3.594-0.731-0.691 0-1.25 0.559-1.25 1.25s0.559 1.25 1.25 1.25c3.722 0 6.747 3.028 6.747 6.747 0 3.722-3.028 6.747-6.747 6.747-0.128 0-0.253 0.019-0.369 0.056v-1.9c0-0.384-0.438-0.606-0.747-0.378l-4.144 3.050c-0.253 0.188-0.253 0.569 0 0.756l4.141 3.047c0.309 0.228 0.747 0.006 0.747-0.378v-1.809c0.116 0.038 0.241 0.056 0.369 0.056 1.244 0 2.453-0.247 3.594-0.731 1.1-0.469 2.087-1.134 2.938-1.984s1.519-1.837 1.984-2.938c0.484-1.141 0.731-2.35 0.731-3.594s-0.244-2.453-0.728-3.594zM16.025 20.644c0.691-0.003 1.247-0.566 1.244-1.256l-0.038-6.691c-0.003-0.688-0.563-1.244-1.25-1.244h-0.006c-0.691 0.003-1.247 0.566-1.244 1.256l0.037 6.691c0.003 0.688 0.563 1.244 1.25 1.244h0.006z"></path>
</svg>
