<!-- Generated by IcoMoon.io -->
<svg version="1.1" xmlns="http://www.w3.org/2000/svg" width="32" height="32" viewBox="0 0 32 32">
<title>gengduo</title>
<path d="M28.956 10.488c-0.706-1.669-1.716-3.166-3.003-4.453-1.284-1.287-2.784-2.297-4.453-3.003-1.728-0.731-3.563-1.1-5.453-1.1s-3.725 0.369-5.453 1.1c-1.669 0.706-3.166 1.716-4.453 3.003s-2.297 2.784-3.003 4.453c-0.731 1.728-1.1 3.563-1.1 5.453s0.372 3.725 1.1 5.453c0.706 1.669 1.716 3.166 3.003 4.453s2.784 2.297 4.453 3.003c1.728 0.731 3.563 1.1 5.453 1.1s3.725-0.372 5.453-1.1c1.669-0.706 3.166-1.716 4.453-3.003s2.297-2.784 3.003-4.453c0.731-1.728 1.1-3.563 1.1-5.453s-0.369-3.725-1.1-5.453zM16.047 27.45c-6.347 0-11.509-5.162-11.509-11.509s5.162-11.509 11.509-11.509c6.347 0 11.509 5.162 11.509 11.509s-5.163 11.509-11.509 11.509zM7.656 15.941c0 1.060 0.859 1.919 1.919 1.919s1.919-0.859 1.919-1.919v0c0-1.060-0.859-1.919-1.919-1.919s-1.919 0.859-1.919 1.919v0zM14.216 15.941c0 1.060 0.859 1.919 1.919 1.919s1.919-0.859 1.919-1.919v0c0-1.060-0.859-1.919-1.919-1.919s-1.919 0.859-1.919 1.919v0zM20.603 15.941c0 1.060 0.859 1.919 1.919 1.919s1.919-0.859 1.919-1.919v0c0-1.060-0.859-1.919-1.919-1.919s-1.919 0.859-1.919 1.919v0z"></path>
</svg>
