<!-- Generated by IcoMoon.io -->
<svg version="1.1" xmlns="http://www.w3.org/2000/svg" width="32" height="32" viewBox="0 0 32 32">
<title>shoucang</title>
<path d="M28.809 15.6c0.794-1.222 1.234-2.662 1.234-4.162 0-2.037-0.794-3.953-2.234-5.397-1.406-1.406-3.262-2.194-5.244-2.234-2.134-0.041-4.197 0.819-5.672 2.362-0.334 0.35-0.631 0.728-0.891 1.128-0.028 0.041-0.088 0.041-0.113 0-0.328-0.506-0.719-0.978-1.169-1.403-1.356-1.284-3.144-2.025-5.012-2.078-2.116-0.059-4.112 0.737-5.6 2.228-1.438 1.438-2.228 3.35-2.228 5.381 0 1.341 0.353 2.659 1.022 3.816 0.087 0.15 0.178 0.294 0.275 0.438 0.003 0.003 0.003 0.006 0.006 0.012 0.069 0.175 0.547 0.709 0.547 0.709 0.244 0.281 0.506 0.544 0.784 0.784l11.422 11.422c0.025 0.025 0.069 0.025 0.097 0l11.538-11.537c0.166-0.153 0.325-0.313 0.478-0.478-0.009-0.003 0.584-0.7 0.759-0.991zM7.438 16.575s-1.003-1.037-1.209-1.209l-0.706-0.706c-0.859-1.047-1.278-2.412-1.112-3.85 0.259-2.262 2.013-4.084 4.262-4.434 3.178-0.494 5.928 1.962 5.928 5.050 0 0.691 0.559 1.25 1.25 1.25h0.003c0.059 0.009 0.119 0.012 0.178 0.012 0.691 0 1.25-0.559 1.25-1.25 0-2.828 2.303-5.131 5.131-5.131s5.131 2.303 5.131 5.131c0 1.281-0.478 2.497-1.316 3.431l-0.381 0.381c-0.169 0.153-0.831 0.772-1 1l-8.819 8.819c-0.025 0.025-0.069 0.025-0.097 0l-8.494-8.494z"></path>
</svg>
