<!-- Generated by IcoMoon.io -->
<svg version="1.1" xmlns="http://www.w3.org/2000/svg" width="32" height="32" viewBox="0 0 32 32">
<title>shunxubofang</title>
<path d="M3.313 2.672c-0.691 0-1.25 0.559-1.25 1.25v23.769c0 0.691 0.559 1.25 1.25 1.25s1.25-0.559 1.25-1.25v-23.769c0-0.691-0.559-1.25-1.25-1.25zM14.291 2.672c-0.691 0-1.25 0.559-1.25 1.25v23.769c0 0.691 0.559 1.25 1.25 1.25s1.25-0.559 1.25-1.25v-23.769c0-0.691-0.559-1.25-1.25-1.25zM29.847 20.669c-0.222-0.387-0.634-0.625-1.081-0.625h-2.25c0-0.025 0.003-0.047 0.003-0.072v-16.050c0-0.691-0.559-1.25-1.25-1.25s-1.25 0.559-1.25 1.25v16.050c0 0.025 0 0.047 0.003 0.072h-2.719c-0.447 0-0.859 0.238-1.081 0.625s-0.222 0.863 0 1.25l3.731 6.463c0.222 0.387 0.634 0.625 1.081 0.625s0.859-0.238 1.081-0.625l3.731-6.462c0.225-0.387 0.225-0.866 0-1.25zM25.034 25.256l-1.566-2.712h3.131l-1.566 2.712z"></path>
</svg>
