<!-- Generated by IcoMoon.io -->
<svg version="1.1" xmlns="http://www.w3.org/2000/svg" width="32" height="32" viewBox="0 0 32 32">
<title>suijibofang</title>
<path d="M28.569 22.031l-3.681-3.381c-0.272-0.25-0.709-0.056-0.709 0.313v2.538c-2.172-0.056-4.188-1.241-5.291-3.119l-1.409-2.406 1.469-2.506c1.091-1.863 3.081-3.044 5.231-3.119v1.878c0 0.369 0.438 0.559 0.709 0.313l3.681-3.378c0.181-0.169 0.181-0.456 0-0.622l-3.681-3.384c-0.272-0.25-0.709-0.056-0.709 0.313v2.375h-0.491c-0.147 0-0.291 0.025-0.422 0.072-1.141 0.147-2.25 0.519-3.253 1.094-1.331 0.762-2.447 1.869-3.222 3.194l-0.759 1.297-0.759-1.297c-0.775-1.325-1.891-2.428-3.222-3.194-1.331-0.762-2.847-1.166-4.384-1.166h-4.384c-0.691 0-1.25 0.559-1.25 1.25s0.559 1.25 1.25 1.25h4.384c2.231 0 4.322 1.197 5.45 3.122l1.469 2.506-1.409 2.406c-1.131 1.928-3.219 3.122-5.45 3.122h-4.444c-0.691 0-1.25 0.559-1.25 1.25s0.559 1.25 1.25 1.25l4.444 0.003c1.534 0 3.050-0.403 4.381-1.166 1.334-0.762 2.447-1.869 3.225-3.194l0.7-1.197 0.7 1.197c0.775 1.325 1.891 2.431 3.225 3.194 1.034 0.591 2.175 0.966 3.353 1.106 0.119 0.038 0.244 0.056 0.372 0.056l0.497 0.003v1.719c0 0.369 0.438 0.559 0.709 0.313l3.681-3.378c0.184-0.172 0.184-0.459 0-0.625z"></path>
</svg>
