<!-- Generated by IcoMoon.io -->
<svg version="1.1" xmlns="http://www.w3.org/2000/svg" width="32" height="32" viewBox="0 0 32 32">
<title>tinggeshiqu</title>
<path d="M28.866 10.566c-0.706-1.669-1.716-3.166-3.003-4.453s-2.784-2.297-4.453-3.003c-1.728-0.731-3.563-1.1-5.453-1.1s-3.725 0.372-5.453 1.1c-1.669 0.706-3.166 1.716-4.453 3.003s-2.297 2.784-3.003 4.453c-0.731 1.728-1.1 3.563-1.1 5.453s0.372 3.725 1.1 5.453c0.706 1.669 1.716 3.166 3.003 4.453s2.784 2.297 4.453 3.003c1.728 0.731 3.563 1.1 5.453 1.1s3.725-0.372 5.453-1.1c1.669-0.706 3.166-1.716 4.453-3.003s2.297-2.784 3.003-4.453c0.731-1.728 1.1-3.563 1.1-5.453s-0.369-3.725-1.1-5.453zM15.956 27.528c-6.347 0-11.509-5.162-11.509-11.509s5.162-11.509 11.509-11.509 11.509 5.162 11.509 11.509c0 6.347-5.163 11.509-11.509 11.509zM20.259 11.684c-0.072-0.056-0.144-0.113-0.212-0.175-0.469-0.416-0.828-0.95-1.025-1.559-0.031-0.091-0.056-0.181-0.078-0.275-0.066-0.266-0.1-0.547-0.1-0.834 0-0.631 0.166-1.225 0.453-1.737-1.325 0.278-2.378 1.291-2.712 2.594-0.025 0.097-0.047 0.197-0.063 0.3v8.181c-0.184-0.059-0.372-0.109-0.569-0.147-0.334-0.069-0.688-0.109-1.053-0.119-0.422-0.012-0.859 0.019-1.306 0.097-0.95 0.163-1.8 0.512-2.487 0.978-0.775 0.525-1.338 1.203-1.597 1.938-0.15 0.428-0.2 0.875-0.122 1.322 0.322 1.884 2.731 3.044 5.378 2.591 0.65-0.113 1.253-0.309 1.791-0.575 0.722-0.356 1.322-0.831 1.75-1.372 0.375-0.475 0.616-1.003 0.681-1.544 0.012-0.103 0.019-0.209 0.022-0.316 0.006 0 0.012-7.966 0.012-7.966v0c0.066-0.003 0.134-0.006 0.2-0.006 0.85 0 1.631 0.297 2.244 0.797 0.494 0.4 0.875 0.928 1.1 1.537-0.156-0.619-0.391-1.203-0.697-1.747-0.419-0.75-0.966-1.412-1.609-1.963z"></path>
</svg>
