<!-- Generated by IcoMoon.io -->
<svg version="1.1" xmlns="http://www.w3.org/2000/svg" width="32" height="32" viewBox="0 0 32 32">
<title>xiayiqu</title>
<path d="M3.184 21.378c0.706 1.669 1.716 3.166 3.003 4.453s2.784 2.297 4.453 3.003c1.728 0.731 3.563 1.1 5.453 1.1s3.725-0.372 5.453-1.1c1.669-0.706 3.166-1.716 4.453-3.003s2.297-2.784 3.003-4.453c0.731-1.728 1.1-3.563 1.1-5.453s-0.372-3.725-1.1-5.453c-0.706-1.669-1.716-3.166-3.003-4.453s-2.784-2.297-4.453-3.003c-1.728-0.731-3.563-1.1-5.453-1.1s-3.728 0.369-5.456 1.1c-1.669 0.706-3.166 1.716-4.453 3.003s-2.297 2.784-3.003 4.453c-0.731 1.728-1.1 3.563-1.1 5.453s0.372 3.725 1.103 5.453zM16.091 4.416c6.347 0 11.509 5.162 11.509 11.509s-5.163 11.509-11.509 11.509c-6.347 0-11.509-5.163-11.509-11.509s5.162-11.509 11.509-11.509zM10.747 21.225c0.387 0.222 0.863 0.222 1.25 0l7.306-4.219c0.097-0.056 0.181-0.122 0.259-0.2v3.897c0 0.691 0.559 1.25 1.25 1.25s1.25-0.559 1.25-1.25v-9.563c0-0.691-0.559-1.25-1.25-1.25s-1.25 0.559-1.25 1.25v3.897c-0.075-0.075-0.163-0.144-0.259-0.2l-7.306-4.219c-0.194-0.113-0.409-0.169-0.625-0.169s-0.431 0.056-0.625 0.169c-0.387 0.222-0.625 0.634-0.625 1.081v8.437c0 0.45 0.238 0.866 0.625 1.087zM12.622 13.872l3.556 2.053-3.556 2.053v-4.106z"></path>
</svg>
