<!-- Generated by IcoMoon.io -->
<svg version="1.1" xmlns="http://www.w3.org/2000/svg" width="32" height="32" viewBox="0 0 32 32">
<title>yinleguan</title>
<path d="M27.253 23.106c0.003-0.034 0.003-0.069 0.003-0.103v-19.934c0-0.691-0.559-1.25-1.25-1.25-0.188 0-0.366 0.041-0.525 0.116l-12.334 3.65c-0.622 0.184-0.994 0.809-0.872 1.434v16.647c-0.741-0.297-1.6-0.469-2.516-0.469-2.778 0-5.028 1.566-5.028 3.5s2.25 3.5 5.028 3.5c2.313 0 4.263-1.087 4.847-2.569 0.106-0.184 0.169-0.397 0.169-0.625v-0.059c0.009-0.081 0.012-0.163 0.012-0.247s-0.003-0.166-0.012-0.247v-18.741l9.988-2.953v15.656c-0.738-0.297-1.597-0.466-2.509-0.466-2.778 0-5.028 1.566-5.028 3.5s2.25 3.5 5.028 3.5 5.028-1.566 5.028-3.5c-0.003-0.116-0.012-0.228-0.028-0.341z"></path>
</svg>
