<!-- Generated by IcoMoon.io -->
<svg version="1.1" xmlns="http://www.w3.org/2000/svg" width="32" height="32" viewBox="0 0 32 32">
<title>yinliang</title>
<path d="M19.991 2.931c-0.375-0.225-0.837-0.241-1.225-0.038l-8.703 4.547h-6.563c-0.691 0-1.25 0.559-1.25 1.25v14.053c0 0.691 0.559 1.25 1.25 1.25h6.403c0.016 0.009 0.034 0.019 0.050 0.028l8.822 4.5c0.178 0.091 0.375 0.137 0.569 0.137 0.228 0 0.453-0.063 0.653-0.184 0.372-0.228 0.597-0.631 0.597-1.066v-23.409c0-0.438-0.228-0.844-0.603-1.069zM4.75 9.941h4.522v11.553h-4.522v-11.553zM18.094 25.366l-6.322-3.225v-12.775l6.322-3.303v19.303zM26.728 7.050c-0.488-0.487-1.281-0.487-1.769 0.003s-0.488 1.281 0.003 1.769c2.050 2.047 2.744 3.856 2.744 7.175 0 3.553-0.653 5.406-2.587 7.341-0.488 0.488-0.488 1.278 0 1.769 0.244 0.244 0.563 0.366 0.884 0.366 0.319 0 0.641-0.122 0.884-0.366 1.294-1.294 2.137-2.606 2.653-4.134 0.459-1.359 0.666-2.894 0.666-4.975 0-3.994-0.941-6.419-3.478-8.947z"></path>
</svg>
