<!-- Generated by IcoMoon.io -->
<svg version="1.1" xmlns="http://www.w3.org/2000/svg" width="32" height="32" viewBox="0 0 32 32">
<title>zanting</title>
<path d="M28.859 10.528c-0.706-1.669-1.716-3.166-3.003-4.453s-2.784-2.297-4.453-3.003c-1.725-0.728-3.559-1.1-5.45-1.1s-3.725 0.372-5.453 1.1c-1.669 0.706-3.166 1.716-4.453 3.003s-2.297 2.784-3.003 4.453c-0.731 1.728-1.1 3.563-1.1 5.453s0.372 3.725 1.1 5.453c0.706 1.669 1.716 3.166 3.003 4.453s2.784 2.297 4.453 3.003c1.728 0.731 3.563 1.1 5.453 1.1s3.725-0.372 5.453-1.1c1.669-0.706 3.166-1.716 4.453-3.003s2.297-2.784 3.003-4.453c0.731-1.728 1.1-3.563 1.1-5.453s-0.372-3.725-1.103-5.453zM15.953 27.491c-6.347 0-11.509-5.163-11.509-11.509s5.162-11.509 11.509-11.509c6.347 0 11.509 5.162 11.509 11.509s-5.163 11.509-11.509 11.509zM20.231 10.681c-0.387-0.222-0.863-0.222-1.25 0l-7.306 4.219c-0.387 0.222-0.625 0.637-0.625 1.081 0 0.447 0.238 0.859 0.625 1.081l7.306 4.219c0.194 0.113 0.409 0.169 0.625 0.169s0.431-0.056 0.625-0.169c0.387-0.222 0.625-0.634 0.625-1.081v-8.438c0-0.447-0.238-0.859-0.625-1.081zM18.356 18.034l-3.556-2.053 3.556-2.053v4.106z"></path>
</svg>
